<svg width="1285" height="1285" viewBox="0 0 1285 1285" fill="none" xmlns="http://www.w3.org/2000/svg">
<path d="M0 642.5C0 287.657 287.657 0 642.5 0V0C997.343 0 1285 287.657 1285 642.5V642.5C1285 997.343 997.343 1285 642.5 1285V1285C287.657 1285 0 997.343 0 642.5V642.5Z" fill="#25BF8B"/>
<path fill-rule="evenodd" clip-rule="evenodd" d="M814.999 907.071C824.263 897.807 839.28 897.807 848.544 907.071L895.986 954.513C905.25 963.777 905.25 978.794 895.986 988.058C886.722 997.322 871.705 997.322 862.441 988.058L814.999 940.616C805.735 931.352 805.735 916.335 814.999 907.071Z" fill="white"/>
<path fill-rule="evenodd" clip-rule="evenodd" d="M469.005 907.071C459.742 897.807 444.722 897.807 435.458 907.071L388.016 954.513C378.752 963.777 378.752 978.794 388.016 988.058C397.28 997.322 412.299 997.322 421.563 988.058L469.005 940.616C478.269 931.352 478.269 916.335 469.005 907.071Z" fill="white"/>
<path fill-rule="evenodd" clip-rule="evenodd" d="M642.002 378.255C471.772 378.255 333.626 516.401 333.626 686.631C333.626 856.861 471.772 995.007 642.002 995.007C812.231 995.007 950.377 856.861 950.377 686.631C950.377 516.401 812.231 378.255 642.002 378.255ZM655.191 558.825C655.191 545.724 644.57 535.103 631.469 535.103C618.369 535.103 607.748 545.724 607.748 558.825V675.533C607.748 689.607 612.505 703.6 619.046 715.074C625.583 726.536 635.183 737.727 647.239 744.881L647.271 744.9L735.451 797.523C746.701 804.238 761.266 800.559 767.977 789.309C774.692 778.062 771.013 763.497 759.763 756.786L671.52 704.125L671.457 704.087C668.158 702.132 663.822 697.818 660.257 691.571C656.696 685.325 655.191 679.395 655.191 675.533V558.825Z" fill="white"/>
<path fill-rule="evenodd" clip-rule="evenodd" d="M813.993 323.015C822.665 313.197 837.657 312.271 847.475 320.945L965.983 425.655C975.803 434.329 976.73 449.32 968.054 459.138C959.379 468.955 944.39 469.882 934.573 461.208L816.061 356.498C806.244 347.824 805.317 332.833 813.993 323.015Z" fill="white"/>
<path fill-rule="evenodd" clip-rule="evenodd" d="M470.008 323.015C461.333 313.197 446.342 312.271 436.525 320.945L318.015 425.655C308.197 434.329 307.271 449.32 315.945 459.138C324.619 468.955 339.61 469.882 349.428 461.208L467.938 356.498C477.756 347.824 478.682 332.833 470.008 323.015Z" fill="white"/>
</svg>
