<svg width="1285" height="1285" viewBox="0 0 1285 1285" fill="none" xmlns="http://www.w3.org/2000/svg">
<path d="M0 642.5C0 287.657 287.657 0 642.5 0V0C997.343 0 1285 287.657 1285 642.5V642.5C1285 997.343 997.343 1285 642.5 1285V1285C287.657 1285 0 997.343 0 642.5V642.5Z" fill="#25BF8B"/>
<path d="M826.158 562.625C826.158 664.101 743.976 746.375 642.5 746.375C642.5 695.683 601.317 654.5 550.625 654.5H458.658C366.875 654.5 275 602.82 275 470.75C275 335.809 366.875 287 458.658 287H642.5C734.375 287 826.158 343.94 826.158 470.75V562.625Z" fill="white"/>
<path d="M871.728 567.518C869.041 691.824 767.404 792.313 642.5 792.313H596.563V746.375C596.563 721.018 575.937 700.438 550.625 700.438H463.321C460.45 714.655 458.658 729.861 458.658 746.375V838.25C458.658 939.726 541.024 1022 642.5 1022C642.5 971.216 683.683 930.125 734.375 930.125H826.158C918.125 930.125 1010 878.446 1010 746.375C1010 633.989 946.032 581.919 871.728 567.518Z" fill="white"/>
</svg>
