<svg width="1285" height="1285" viewBox="0 0 1285 1285" fill="none" xmlns="http://www.w3.org/2000/svg">
<path d="M0 642.5C0 287.657 287.657 0 642.5 0V0C997.343 0 1285 287.657 1285 642.5V642.5C1285 997.343 997.343 1285 642.5 1285V1285C287.657 1285 0 997.343 0 642.5V642.5Z" fill="#25BF8B"/>
<path d="M630 876.875V386.25C630 386.25 562.8 330 467.5 330C372.2 330 305 380 305 380V876.875C305 876.875 372.2 828.425 467.5 828.425C562.8 828.425 630 876.875 630 876.875ZM980 876.875V386.25C980 386.25 912.8 330 817.5 330C722.2 330 655 380 655 380V876.875C655 876.875 722.2 828.425 817.5 828.425C912.8 828.425 980 876.875 980 876.875ZM1030 430H1005V905H705V930H580V905H280V430H255V930H555V955H731.55L730 930H1030V430Z" fill="white"/>
</svg>
