<svg width="1285" height="1285" viewBox="0 0 1285 1285" fill="none" xmlns="http://www.w3.org/2000/svg">
<path d="M0 642.5C0 287.657 287.657 0 642.5 0V0C997.343 0 1285 287.657 1285 642.5V642.5C1285 997.343 997.343 1285 642.5 1285V1285C287.657 1285 0 997.343 0 642.5V642.5Z" fill="#25BF8B"/>
<path d="M908.694 699.203V699.155L819.583 607.822L760.866 699.203H908.694Z" fill="white"/>
<path d="M553.273 736.216L628.03 1016L702.786 736.216H553.273Z" fill="white"/>
<path d="M690.578 699.155L626.686 611.142L564.845 699.155V699.203H690.578V699.155Z" fill="white"/>
<path d="M726.003 684.897L782.448 597.055H662.283L726.003 684.897Z" fill="white"/>
<path d="M591.311 597.055H473.634L529.836 684.506L591.311 597.055Z" fill="white"/>
<path d="M347.366 699.155V699.203H495.217L436.502 607.822L347.366 699.155Z" fill="white"/>
<path d="M344.436 736.216L588.528 1011.61L514.944 736.216H344.436Z" fill="white"/>
<path d="M667.58 1011.61L911.647 736.216H741.139L667.58 1011.61Z" fill="white"/>
<path d="M1030.18 499.497C989.797 499.497 975.833 489.366 967.97 481.528C960.158 473.667 950.001 459.702 950.001 419.32C950.001 417.806 949.854 413.461 945.02 413.461C940.234 413.461 940.039 417.806 940.039 419.32C940.039 459.702 929.908 473.666 922.07 481.528C914.209 489.366 900.244 499.497 859.887 499.497C858.35 499.497 854.003 499.667 854.003 504.478C854.003 509.264 858.348 509.459 859.887 509.459C900.244 509.459 914.209 519.616 922.07 527.428C929.908 535.289 940.039 549.255 940.039 589.636C940.039 591.198 940.234 595.495 945.02 595.495C949.854 595.495 950.001 591.198 950.001 589.636C950.001 549.255 960.158 535.291 967.97 527.428C975.831 519.591 989.797 509.459 1030.18 509.459C1031.72 509.459 1036.06 509.313 1036.06 504.478C1036.06 499.692 1031.72 499.497 1030.18 499.497Z" fill="white"/>
<path d="M429.641 347.934C485.134 347.934 504.349 361.9 515.139 372.691C525.881 383.458 539.847 402.672 539.847 458.189C539.847 460.289 540.116 466.245 546.683 466.245C553.324 466.245 553.519 460.288 553.519 458.189C553.519 402.672 567.484 383.458 578.25 372.691C589.017 361.9 608.206 347.934 663.724 347.934C665.872 347.934 671.83 347.739 671.83 341.098C671.83 334.531 665.872 334.263 663.724 334.263C608.206 334.263 589.016 320.347 578.25 309.555C567.484 298.762 553.519 279.573 553.519 224.081C553.519 221.958 553.324 216 546.683 216C540.116 216 539.847 221.958 539.847 224.081C539.847 279.575 525.881 298.764 515.139 309.555C504.349 320.345 485.134 334.263 429.641 334.263C427.541 334.263 421.584 334.506 421.584 341.123C421.584 347.689 427.541 347.934 429.641 347.934Z" fill="white"/>
<path d="M348.244 599.789C348.244 562.655 357.57 549.789 364.797 542.588C372.023 535.361 384.866 526.034 422.023 526.034C423.416 526.034 427.419 525.888 427.419 521.469C427.419 517.05 423.414 516.878 422.023 516.878C384.866 516.878 372.023 507.552 364.797 500.325C357.57 493.098 348.244 480.256 348.244 443.147C348.244 441.731 348.097 437.727 343.678 437.727C339.259 437.727 339.113 441.731 339.113 443.147C339.113 480.256 329.763 493.098 322.559 500.325C315.333 507.552 302.491 516.878 265.333 516.878C263.917 516.878 259.938 517.048 259.938 521.469C259.938 525.864 263.917 526.034 265.333 526.034C302.491 526.034 315.333 535.384 322.559 542.588C329.761 549.789 339.113 562.656 339.113 599.789C339.113 601.205 339.259 605.209 343.678 605.209C348.097 605.209 348.244 601.205 348.244 599.789Z" fill="white"/>
</svg>
