<svg width="1285" height="1285" viewBox="0 0 1285 1285" fill="none" xmlns="http://www.w3.org/2000/svg">
<path d="M0 642.5C0 287.657 287.657 0 642.5 0V0C997.343 0 1285 287.657 1285 642.5V642.5C1285 997.343 997.343 1285 642.5 1285V1285C287.657 1285 0 997.343 0 642.5V642.5Z" fill="#25BF8B"/>
<path d="M558.15 942.417C558.148 885.61 604.198 839.561 661.002 839.565C717.807 839.564 763.854 885.611 763.853 942.416C763.853 949.766 763.068 956.929 761.601 963.845L943.844 963.844L943.844 781.602C936.931 783.068 929.769 783.854 922.416 783.852C865.611 783.854 819.564 737.807 819.565 681.002C819.563 624.195 865.612 578.146 922.416 578.151C929.766 578.148 936.93 578.936 943.843 580.4V398.158L761.601 398.158C763.067 391.245 763.854 384.08 763.851 376.731C763.853 319.923 717.804 273.875 660.999 273.879C604.194 273.878 558.145 319.927 558.149 376.73C558.151 384.079 558.938 391.243 560.4 398.158L378.157 398.157V580.399C371.245 578.934 364.08 578.147 356.728 578.147C299.922 578.147 253.874 624.195 253.876 680.999C253.88 737.802 299.922 783.851 356.728 783.851C364.081 783.85 371.244 783.064 378.157 781.6L378.157 963.844H560.399C558.936 956.93 558.147 949.767 558.15 942.417Z" fill="white"/>
</svg>
