<svg width="1285" height="1285" viewBox="0 0 1285 1285" fill="none" xmlns="http://www.w3.org/2000/svg">
<path d="M0 642.5C0 287.657 287.657 0 642.5 0V0C997.343 0 1285 287.657 1285 642.5V642.5C1285 997.343 997.343 1285 642.5 1285V1285C287.657 1285 0 997.343 0 642.5V642.5Z" fill="#25BF8B"/>
<path d="M948.818 443.835C937.031 430.479 920.259 422.823 902.803 422.823H843.122C840.129 380.38 811.309 386.279 800.085 386.279C788.24 386.279 642.001 386.279 642.001 386.279C642.001 386.279 495.762 386.279 483.918 386.279C472.692 386.279 443.868 380.381 440.875 422.823H381.195C363.741 422.823 346.969 430.482 335.179 443.835C320.89 460.024 314.723 483.387 317.754 509.732C318.315 521.436 324.226 581.555 386.423 624.315C418.031 646.045 448.411 657.125 476.049 662.763C482.106 664.071 488.234 665.247 494.514 666.165C494.601 666.261 494.686 666.36 494.775 666.456C624.088 802.538 608.296 723.813 608.296 848.551C608.296 896.91 541.302 881.256 541.302 918.375C541.302 955.491 489.087 924.943 493.92 968.982C496.881 995.977 576.843 1016.22 642.003 1016.22C707.158 1016.22 787.126 995.976 790.086 968.982C794.917 924.943 742.7 955.491 742.7 918.375C742.7 881.256 675.709 896.91 675.709 848.551C675.709 723.812 659.916 802.538 789.231 666.456C789.408 666.266 789.573 666.066 789.751 665.875C821.953 661.705 858.886 650.922 897.583 624.316C959.774 581.556 965.685 521.437 966.246 509.733C969.277 483.387 963.108 460.021 948.818 443.835ZM915.22 504.54L914.987 505.799L915.018 507.517C914.896 510.849 912.472 551.844 868.527 582.057C856.508 590.322 844.879 596.586 833.57 601.451C831.013 602.487 828.462 603.524 825.846 604.426C841.287 560.945 843.794 512.312 843.838 474.104H902.802C904.78 474.104 907.698 474.741 910.374 477.77C914.936 482.937 916.703 492.692 915.22 504.54ZM605.836 635.273C601.005 641.366 593.856 644.54 586.644 644.54C581.315 644.54 575.95 642.809 571.452 639.241C510.03 590.528 504.885 523.656 504.885 464.802C504.885 451.287 515.845 440.329 529.36 440.329C542.876 440.329 553.833 451.287 553.833 464.802C553.833 516.442 557.508 565.707 601.867 600.889C612.457 609.29 614.234 624.684 605.836 635.273ZM415.472 582.057C371.567 551.872 369.104 510.927 368.978 507.527L369.006 506.359L368.777 504.538C367.295 492.694 369.062 482.936 373.625 477.769C376.301 474.74 379.218 474.103 381.195 474.103H440.158C440.197 506.721 442.104 546.919 452.244 585.042C453.935 591.616 455.809 598.151 458.011 604.574C444.346 599.405 430.191 592.177 415.472 582.057Z" fill="white"/>
</svg>
