<svg width="461" height="114" viewBox="0 0 461 114" fill="none" xmlns="http://www.w3.org/2000/svg">
<mask id="mask0_8236_2878" style="mask-type:luminance" maskUnits="userSpaceOnUse" x="40" y="0" width="45" height="83">
<path d="M40.8808 1.53802e-05H85.0001V82.0374H40.8808V1.53802e-05Z" fill="white"/>
</mask>
<g mask="url(#mask0_8236_2878)">
<g opacity="0.199997">
<path d="M40.883 1.53802e-05V56.5148L85.0008 82.0374V24.0644L40.883 1.53802e-05Z" fill="#25BF8B"/>
</g>
</g>
<mask id="mask1_8236_2878" style="mask-type:luminance" maskUnits="userSpaceOnUse" x="29" y="6" width="45" height="83">
<path d="M29.2504 6.88795H73.3647V88.9253H29.2504V6.88795Z" fill="white"/>
</mask>
<g mask="url(#mask1_8236_2878)">
<g opacity="0.5">
<path d="M29.2488 6.88783V63.4026L73.3666 88.9252V30.9523L29.2488 6.88783Z" fill="#25BF8B"/>
</g>
</g>
<mask id="mask2_8236_2878" style="mask-type:luminance" maskUnits="userSpaceOnUse" x="15" y="20" width="45" height="83">
<path d="M15.6775 20.4577H59.7968V102.495H15.6775V20.4577Z" fill="white"/>
</mask>
<g mask="url(#mask2_8236_2878)">
<g opacity="0.699997">
<path d="M15.6786 20.4579V76.9727L59.7964 102.495V44.5223L15.6786 20.4579Z" fill="#25BF8B"/>
</g>
</g>
<path d="M0 31.3092V87.824L44.1178 113.347V55.3737L0 31.3092Z" fill="#25BF8B"/>
<path d="M120.2 94.0002C118.133 94.0002 116.533 93.4336 115.4 92.3002C114.267 91.1002 113.7 89.4669 113.7 87.4002V29.7002C113.7 27.5669 114.233 25.9669 115.3 24.9002C116.433 23.7669 118.033 23.2002 120.1 23.2002C122.167 23.2002 123.733 23.7669 124.8 24.9002C125.933 25.9669 126.5 27.5669 126.5 29.7002V83.1002H155.5C157.3 83.1002 158.667 83.5669 159.6 84.5002C160.6 85.4336 161.1 86.7669 161.1 88.5002C161.1 90.2336 160.6 91.6002 159.6 92.6002C158.667 93.5336 157.3 94.0002 155.5 94.0002H120.2ZM192.264 95.0002C186.731 95.0002 181.964 93.9669 177.964 91.9002C173.964 89.8336 170.864 86.9002 168.664 83.1002C166.531 79.3002 165.464 74.8002 165.464 69.6002C165.464 64.5336 166.497 60.1002 168.564 56.3002C170.697 52.5002 173.597 49.5336 177.264 47.4002C180.997 45.2002 185.231 44.1002 189.964 44.1002C193.431 44.1002 196.531 44.6669 199.264 45.8002C202.064 46.9336 204.431 48.5669 206.364 50.7002C208.364 52.8336 209.864 55.4336 210.864 58.5002C211.931 61.5002 212.464 64.9002 212.464 68.7002C212.464 69.9002 212.031 70.8336 211.164 71.5002C210.364 72.1002 209.197 72.4002 207.664 72.4002H175.564V65.2002H203.664L202.064 66.7002C202.064 63.6336 201.597 61.0669 200.664 59.0002C199.797 56.9336 198.497 55.3669 196.764 54.3002C195.097 53.1669 192.997 52.6002 190.464 52.6002C187.664 52.6002 185.264 53.2669 183.264 54.6002C181.331 55.8669 179.831 57.7002 178.764 60.1002C177.764 62.4336 177.264 65.2336 177.264 68.5002V69.2002C177.264 74.6669 178.531 78.7669 181.064 81.5002C183.664 84.1669 187.464 85.5002 192.464 85.5002C194.197 85.5002 196.131 85.3002 198.264 84.9002C200.464 84.4336 202.531 83.6669 204.464 82.6002C205.864 81.8002 207.097 81.4669 208.164 81.6002C209.231 81.6669 210.064 82.0336 210.664 82.7002C211.331 83.3669 211.731 84.2002 211.864 85.2002C211.997 86.1336 211.797 87.1002 211.264 88.1002C210.797 89.1002 209.964 89.9669 208.764 90.7002C206.431 92.1669 203.731 93.2669 200.664 94.0002C197.664 94.6669 194.864 95.0002 192.264 95.0002ZM244.963 95.0002C239.83 95.0002 235.363 93.9669 231.563 91.9002C227.763 89.7669 224.83 86.7669 222.763 82.9002C220.697 79.0336 219.663 74.5002 219.663 69.3002C219.663 65.3669 220.23 61.8669 221.363 58.8002C222.563 55.6669 224.263 53.0336 226.463 50.9002C228.663 48.7002 231.33 47.0336 234.463 45.9002C237.597 44.7002 241.097 44.1002 244.963 44.1002C247.163 44.1002 249.53 44.4002 252.063 45.0002C254.663 45.6002 257.097 46.6002 259.363 48.0002C260.43 48.6669 261.13 49.4669 261.463 50.4002C261.797 51.3336 261.863 52.3002 261.663 53.3002C261.463 54.2336 261.03 55.0669 260.363 55.8002C259.763 56.4669 258.997 56.9002 258.063 57.1002C257.13 57.2336 256.097 57.0002 254.963 56.4002C253.497 55.5336 251.997 54.9002 250.463 54.5002C248.93 54.0336 247.463 53.8002 246.063 53.8002C243.863 53.8002 241.93 54.1669 240.263 54.9002C238.597 55.5669 237.163 56.5669 235.963 57.9002C234.83 59.1669 233.963 60.7669 233.363 62.7002C232.763 64.6336 232.463 66.8669 232.463 69.4002C232.463 74.3336 233.63 78.2336 235.963 81.1002C238.363 83.9002 241.73 85.3002 246.063 85.3002C247.463 85.3002 248.897 85.1002 250.363 84.7002C251.897 84.3002 253.43 83.6669 254.963 82.8002C256.097 82.2002 257.097 82.0002 257.963 82.2002C258.897 82.4002 259.663 82.8669 260.263 83.6002C260.863 84.2669 261.23 85.1002 261.363 86.1002C261.497 87.0336 261.363 87.9669 260.963 88.9002C260.63 89.8336 259.963 90.6002 258.963 91.2002C256.763 92.5336 254.43 93.5002 251.963 94.1002C249.497 94.7002 247.163 95.0002 244.963 95.0002ZM263.428 94.0052C263.405 94.0052 263.387 93.9982 263.373 93.9842C263.359 93.9702 263.353 93.9522 263.353 93.9302C263.353 93.9089 263.359 93.8916 263.373 93.8782C263.387 93.8642 263.405 93.8572 263.428 93.8572C263.451 93.8572 263.469 93.8642 263.482 93.8782C263.495 93.8916 263.502 93.9089 263.502 93.9302C263.502 93.9522 263.495 93.9702 263.482 93.9842C263.469 93.9982 263.451 94.0052 263.428 94.0052ZM297.609 95.0002C293.276 95.0002 289.642 94.2669 286.709 92.8002C283.842 91.3336 281.709 89.2002 280.309 86.4002C278.909 83.5336 278.209 80.0002 278.209 75.8002V54.5002H273.009C271.409 54.5002 270.176 54.1002 269.309 53.3002C268.442 52.4336 268.009 51.2669 268.009 49.8002C268.009 48.2669 268.442 47.1002 269.309 46.3002C270.176 45.5002 271.409 45.1002 273.009 45.1002H278.209V36.0002C278.209 33.9336 278.742 32.3669 279.809 31.3002C280.942 30.2336 282.509 29.7002 284.509 29.7002C286.509 29.7002 288.042 30.2336 289.109 31.3002C290.176 32.3669 290.709 33.9336 290.709 36.0002V45.1002H301.309C302.909 45.1002 304.142 45.5002 305.009 46.3002C305.876 47.1002 306.309 48.2669 306.309 49.8002C306.309 51.2669 305.876 52.4336 305.009 53.3002C304.142 54.1002 302.909 54.5002 301.309 54.5002H290.709V75.1002C290.709 78.3002 291.409 80.7002 292.809 82.3002C294.209 83.9002 296.476 84.7002 299.609 84.7002C300.742 84.7002 301.742 84.6002 302.609 84.4002C303.476 84.2002 304.242 84.0669 304.909 84.0002C305.709 83.9336 306.376 84.2002 306.909 84.8002C307.442 85.3336 307.709 86.4669 307.709 88.2002C307.709 89.5336 307.476 90.7336 307.009 91.8002C306.609 92.8002 305.842 93.5002 304.709 93.9002C303.842 94.1669 302.709 94.4002 301.309 94.6002C299.909 94.8669 298.676 95.0002 297.609 95.0002ZM307.484 94.0052C307.462 94.0052 307.443 93.9982 307.429 93.9842C307.416 93.9702 307.409 93.9522 307.409 93.9302C307.409 93.9089 307.416 93.8916 307.429 93.8782C307.443 93.8642 307.462 93.8572 307.484 93.8572C307.508 93.8572 307.526 93.8642 307.538 93.8782C307.552 93.8916 307.558 93.9089 307.558 93.9302C307.558 93.9522 307.552 93.9702 307.538 93.9842C307.526 93.9982 307.508 94.0052 307.484 94.0052ZM333.436 95.0002C329.37 95.0002 326.003 94.2669 323.336 92.8002C320.67 91.2669 318.67 89.0002 317.336 86.0002C316.07 83.0002 315.436 79.2669 315.436 74.8002V50.6002C315.436 48.4669 315.97 46.9002 317.036 45.9002C318.103 44.8336 319.636 44.3002 321.636 44.3002C323.636 44.3002 325.17 44.8336 326.236 45.9002C327.37 46.9002 327.936 48.4669 327.936 50.6002V75.0002C327.936 78.4669 328.636 81.0336 330.036 82.7002C331.436 84.3669 333.67 85.2002 336.736 85.2002C340.07 85.2002 342.803 84.0669 344.936 81.8002C347.07 79.4669 348.136 76.4002 348.136 72.6002V50.6002C348.136 48.4669 348.67 46.9002 349.736 45.9002C350.803 44.8336 352.336 44.3002 354.336 44.3002C356.336 44.3002 357.87 44.8336 358.936 45.9002C360.07 46.9002 360.636 48.4669 360.636 50.6002V88.4002C360.636 92.6669 358.603 94.8002 354.536 94.8002C352.603 94.8002 351.103 94.2669 350.036 93.2002C348.97 92.0669 348.436 90.4669 348.436 88.4002V80.8002L349.836 83.8002C348.436 87.4002 346.303 90.1669 343.436 92.1002C340.636 94.0336 337.303 95.0002 333.436 95.0002ZM380.046 94.8002C377.98 94.8002 376.38 94.2669 375.246 93.2002C374.18 92.0669 373.646 90.4669 373.646 88.4002V50.6002C373.646 48.5336 374.18 46.9669 375.246 45.9002C376.313 44.8336 377.813 44.3002 379.746 44.3002C381.68 44.3002 383.18 44.8336 384.246 45.9002C385.313 46.9669 385.846 48.5336 385.846 50.6002V56.9002H384.846C385.78 52.9002 387.613 49.8669 390.346 47.8002C393.08 45.7336 396.713 44.5002 401.246 44.1002C402.646 43.9669 403.746 44.3336 404.546 45.2002C405.413 46.0002 405.913 47.2669 406.046 49.0002C406.18 50.6669 405.78 52.0336 404.846 53.1002C403.98 54.1002 402.646 54.7002 400.846 54.9002L398.646 55.1002C394.58 55.5002 391.513 56.7669 389.446 58.9002C387.38 60.9669 386.346 63.9002 386.346 67.7002V88.4002C386.346 90.4669 385.813 92.0669 384.746 93.2002C383.68 94.2669 382.113 94.8002 380.046 94.8002ZM428.418 95.0002C424.885 95.0002 421.718 94.3336 418.918 93.0002C416.185 91.6002 414.018 89.7336 412.418 87.4002C410.885 85.0669 410.118 82.4336 410.118 79.5002C410.118 75.9002 411.052 73.0669 412.918 71.0002C414.785 68.8669 417.818 67.3336 422.018 66.4002C426.218 65.4669 431.852 65.0002 438.918 65.0002H443.918V72.2002H439.018C434.885 72.2002 431.585 72.4002 429.118 72.8002C426.652 73.2002 424.885 73.9002 423.818 74.9002C422.818 75.8336 422.318 77.1669 422.318 78.9002C422.318 81.1002 423.085 82.9002 424.618 84.3002C426.152 85.7002 428.285 86.4002 431.018 86.4002C433.218 86.4002 435.152 85.9002 436.818 84.9002C438.552 83.8336 439.918 82.4002 440.918 80.6002C441.918 78.8002 442.418 76.7336 442.418 74.4002V62.9002C442.418 59.5669 441.685 57.1669 440.218 55.7002C438.752 54.2336 436.285 53.5002 432.818 53.5002C430.885 53.5002 428.785 53.7336 426.518 54.2002C424.318 54.6669 421.985 55.4669 419.518 56.6002C418.252 57.2002 417.118 57.3669 416.118 57.1002C415.185 56.8336 414.452 56.3002 413.918 55.5002C413.385 54.6336 413.118 53.7002 413.118 52.7002C413.118 51.7002 413.385 50.7336 413.918 49.8002C414.452 48.8002 415.352 48.0669 416.618 47.6002C419.685 46.3336 422.618 45.4336 425.418 44.9002C428.285 44.3669 430.885 44.1002 433.218 44.1002C438.018 44.1002 441.952 44.8336 445.018 46.3002C448.152 47.7669 450.485 50.0002 452.018 53.0002C453.552 55.9336 454.318 59.7336 454.318 64.4002V88.4002C454.318 90.4669 453.818 92.0669 452.818 93.2002C451.818 94.2669 450.385 94.8002 448.518 94.8002C446.652 94.8002 445.185 94.2669 444.118 93.2002C443.118 92.0669 442.618 90.4669 442.618 88.4002V83.6002H443.418C442.952 85.9336 442.018 87.9669 440.618 89.7002C439.285 91.3669 437.585 92.6669 435.518 93.6002C433.452 94.5336 431.085 95.0002 428.418 95.0002Z" fill="black"/>
</svg>
