<svg width="1285" height="1285" viewBox="0 0 1285 1285" fill="none" xmlns="http://www.w3.org/2000/svg">
<path d="M0 642.5C0 287.657 287.657 0 642.5 0V0C997.343 0 1285 287.657 1285 642.5V642.5C1285 997.343 997.343 1285 642.5 1285V1285C287.657 1285 0 997.343 0 642.5V642.5Z" fill="#25BF8B"/>
<path d="M982.299 538.796H616.706C572.313 538.796 538.365 572.744 538.365 617.137V826.047C538.365 867.829 572.313 904.388 616.706 904.388H877.844L982.299 1008.84V904.388C1026.69 904.388 1060.64 867.829 1060.64 826.047V617.137C1060.64 572.744 1026.69 538.796 982.299 538.796Z" fill="white"/>
<path d="M668.934 356H303.341C258.948 356 225 389.948 225 434.341V643.251C225 685.033 258.948 721.593 303.341 721.593V826.048L407.796 721.593H486.138V617.138C486.138 544.019 543.588 486.569 616.706 486.569H747.275V434.341C747.275 389.948 713.327 356 668.934 356Z" fill="white"/>
</svg>
