<svg width="446" height="114" viewBox="0 0 446 114" fill="none" xmlns="http://www.w3.org/2000/svg">
<mask id="mask0_8236_2878" style="mask-type:luminance" maskUnits="userSpaceOnUse" x="40" y="0" width="45" height="83">
<path d="M40.8808 1.53802e-05H85.0001V82.0374H40.8808V1.53802e-05Z" fill="white"/>
</mask>
<g mask="url(#mask0_8236_2878)">
<g opacity="0.199997">
<path d="M40.883 1.53802e-05V56.5148L85.0008 82.0374V24.0644L40.883 1.53802e-05Z" fill="#25BF8B"/>
</g>
</g>
<mask id="mask1_8236_2878" style="mask-type:luminance" maskUnits="userSpaceOnUse" x="29" y="6" width="45" height="83">
<path d="M29.2504 6.88795H73.3647V88.9253H29.2504V6.88795Z" fill="white"/>
</mask>
<g mask="url(#mask1_8236_2878)">
<g opacity="0.5">
<path d="M29.2488 6.88783V63.4026L73.3666 88.9252V30.9523L29.2488 6.88783Z" fill="#25BF8B"/>
</g>
</g>
<mask id="mask2_8236_2878" style="mask-type:luminance" maskUnits="userSpaceOnUse" x="15" y="20" width="45" height="83">
<path d="M15.6775 20.4577H59.7968V102.495H15.6775V20.4577Z" fill="white"/>
</mask>
<g mask="url(#mask2_8236_2878)">
<g opacity="0.699997">
<path d="M15.6786 20.4579V76.9727L59.7964 102.495V44.5223L15.6786 20.4579Z" fill="#25BF8B"/>
</g>
</g>
<path d="M0 31.3092V87.824L44.1178 113.347V55.3737L0 31.3092Z" fill="#25BF8B"/>
<path d="M119.5 94.0002C117.833 94.0002 116.533 93.5336 115.6 92.6002C114.667 91.6669 114.2 90.3669 114.2 88.7002V28.4002C114.2 26.6669 114.633 25.3669 115.5 24.5002C116.433 23.5669 117.733 23.1002 119.4 23.1002C121.067 23.1002 122.333 23.5669 123.2 24.5002C124.133 25.3669 124.6 26.6669 124.6 28.4002V85.1002H155.6C157.067 85.1002 158.2 85.5002 159 86.3002C159.8 87.0336 160.2 88.1002 160.2 89.5002C160.2 90.9002 159.8 92.0002 159 92.8002C158.2 93.6002 157.067 94.0002 155.6 94.0002H119.5ZM190.688 94.9002C185.354 94.9002 180.754 93.9002 176.888 91.9002C173.088 89.8336 170.121 86.9336 167.988 83.2002C165.921 79.4002 164.888 74.9002 164.888 69.7002C164.888 64.6336 165.921 60.2002 167.988 56.4002C170.054 52.6002 172.888 49.6336 176.488 47.5002C180.088 45.3669 184.188 44.3002 188.788 44.3002C192.188 44.3002 195.221 44.8669 197.888 46.0002C200.554 47.0669 202.821 48.6669 204.688 50.8002C206.621 52.8669 208.054 55.4002 208.988 58.4002C209.988 61.4002 210.488 64.7669 210.488 68.5002C210.488 69.6336 210.154 70.5002 209.488 71.1002C208.821 71.6336 207.821 71.9002 206.488 71.9002H172.888V65.7002H203.688L201.988 67.1002C201.988 63.7669 201.488 60.9336 200.488 58.6002C199.554 56.2669 198.121 54.5002 196.188 53.3002C194.321 52.0336 191.988 51.4002 189.188 51.4002C186.054 51.4002 183.388 52.1336 181.188 53.6002C179.054 55.0669 177.421 57.1002 176.288 59.7002C175.154 62.3002 174.588 65.3336 174.588 68.8002V69.4002C174.588 75.2669 175.954 79.7002 178.688 82.7002C181.488 85.6336 185.521 87.1002 190.788 87.1002C192.788 87.1002 194.888 86.8336 197.088 86.3002C199.354 85.7669 201.488 84.8669 203.488 83.6002C204.621 82.9336 205.621 82.6336 206.488 82.7002C207.421 82.7669 208.154 83.0669 208.688 83.6002C209.288 84.1336 209.654 84.8002 209.788 85.6002C209.921 86.4002 209.788 87.2336 209.388 88.1002C208.988 88.9002 208.288 89.6336 207.288 90.3002C205.021 91.8336 202.388 93.0002 199.388 93.8002C196.388 94.5336 193.488 94.9002 190.688 94.9002ZM242.998 94.9002C237.998 94.9002 233.665 93.8669 229.998 91.8002C226.398 89.6669 223.598 86.7002 221.598 82.9002C219.598 79.0336 218.598 74.5002 218.598 69.3002C218.598 65.4336 219.165 61.9669 220.298 58.9002C221.432 55.7669 223.032 53.1336 225.098 51.0002C227.232 48.8669 229.798 47.2336 232.798 46.1002C235.865 44.9002 239.265 44.3002 242.998 44.3002C245.332 44.3002 247.765 44.6669 250.298 45.4002C252.898 46.0669 255.298 47.2002 257.498 48.8002C258.365 49.3336 258.898 50.0002 259.098 50.8002C259.365 51.5336 259.398 52.3002 259.198 53.1002C259.065 53.9002 258.698 54.6002 258.098 55.2002C257.565 55.7336 256.898 56.0669 256.098 56.2002C255.298 56.2669 254.432 56.0336 253.498 55.5002C251.898 54.3669 250.265 53.5669 248.598 53.1002C246.932 52.5669 245.332 52.3002 243.798 52.3002C241.398 52.3002 239.265 52.7002 237.398 53.5002C235.598 54.2336 234.065 55.3336 232.798 56.8002C231.532 58.2002 230.565 59.9669 229.898 62.1002C229.298 64.2336 228.998 66.6669 228.998 69.4002C228.998 74.8669 230.265 79.1669 232.798 82.3002C235.398 85.3669 239.065 86.9002 243.798 86.9002C245.332 86.9002 246.932 86.6669 248.598 86.2002C250.265 85.7336 251.898 84.9336 253.498 83.8002C254.432 83.2669 255.298 83.0669 256.098 83.2002C256.898 83.3336 257.532 83.7002 257.998 84.3002C258.532 84.8336 258.865 85.5002 258.998 86.3002C259.198 87.0336 259.165 87.8002 258.898 88.6002C258.632 89.4002 258.065 90.0669 257.198 90.6002C255.065 92.1336 252.732 93.2336 250.198 93.9002C247.732 94.5669 245.332 94.9002 242.998 94.9002ZM289.076 94.9002C285.076 94.9002 281.709 94.2002 278.976 92.8002C276.242 91.4002 274.209 89.3336 272.876 86.6002C271.542 83.8669 270.876 80.5336 270.876 76.6002V53.0002H264.876C263.542 53.0002 262.509 52.6669 261.776 52.0002C261.042 51.2669 260.676 50.3002 260.676 49.1002C260.676 47.8336 261.042 46.8669 261.776 46.2002C262.509 45.5336 263.542 45.2002 264.876 45.2002H270.876V34.9002C270.876 33.2336 271.309 31.9669 272.176 31.1002C273.109 30.2336 274.376 29.8002 275.976 29.8002C277.576 29.8002 278.809 30.2336 279.676 31.1002C280.542 31.9669 280.976 33.2336 280.976 34.9002V45.2002H292.676C294.009 45.2002 295.042 45.5336 295.776 46.2002C296.509 46.8669 296.876 47.8336 296.876 49.1002C296.876 50.3002 296.509 51.2669 295.776 52.0002C295.042 52.6669 294.009 53.0002 292.676 53.0002H280.976V75.8002C280.976 79.3336 281.709 82.0002 283.176 83.8002C284.709 85.6002 287.176 86.5002 290.576 86.5002C291.776 86.5002 292.809 86.4002 293.676 86.2002C294.609 85.9336 295.376 85.7669 295.976 85.7002C296.709 85.7002 297.309 85.9669 297.776 86.5002C298.242 86.9669 298.476 87.9002 298.476 89.3002C298.476 90.3002 298.276 91.2336 297.876 92.1002C297.542 92.9669 296.909 93.5336 295.976 93.8002C295.176 94.0669 294.076 94.3002 292.676 94.5002C291.342 94.7669 290.142 94.9002 289.076 94.9002ZM322.199 94.9002C318.266 94.9002 314.966 94.1669 312.299 92.7002C309.699 91.2336 307.733 89.0669 306.399 86.2002C305.133 83.2669 304.499 79.6002 304.499 75.2002V49.6002C304.499 47.8669 304.933 46.6002 305.799 45.8002C306.666 44.9336 307.899 44.5002 309.499 44.5002C311.099 44.5002 312.333 44.9336 313.199 45.8002C314.133 46.6002 314.599 47.8669 314.599 49.6002V75.3002C314.599 79.2336 315.399 82.1336 316.999 84.0002C318.599 85.8669 321.133 86.8002 324.599 86.8002C328.399 86.8002 331.466 85.5336 333.799 83.0002C336.199 80.4002 337.399 77.0002 337.399 72.8002V49.6002C337.399 47.8669 337.833 46.6002 338.699 45.8002C339.566 44.9336 340.833 44.5002 342.499 44.5002C344.099 44.5002 345.333 44.9336 346.199 45.8002C347.066 46.6002 347.499 47.8669 347.499 49.6002V89.6002C347.499 93.0002 345.866 94.7002 342.599 94.7002C341.066 94.7002 339.866 94.2669 338.999 93.4002C338.133 92.4669 337.699 91.2002 337.699 89.6002V81.1002L338.999 83.3002C337.666 87.0336 335.533 89.9002 332.599 91.9002C329.666 93.9002 326.199 94.9002 322.199 94.9002ZM366.833 94.7002C365.166 94.7002 363.899 94.2669 363.033 93.4002C362.166 92.4669 361.733 91.2002 361.733 89.6002V49.6002C361.733 47.9336 362.166 46.6669 363.033 45.8002C363.899 44.9336 365.099 44.5002 366.633 44.5002C368.233 44.5002 369.433 44.9336 370.233 45.8002C371.099 46.6669 371.533 47.9336 371.533 49.6002V56.9002H370.533C371.599 52.9002 373.566 49.8669 376.433 47.8002C379.299 45.7336 382.966 44.5336 387.433 44.2002C388.633 44.1336 389.566 44.4336 390.233 45.1002C390.966 45.7669 391.366 46.8002 391.433 48.2002C391.566 49.6002 391.266 50.7336 390.533 51.6002C389.799 52.4002 388.666 52.8669 387.133 53.0002L385.233 53.2002C380.899 53.6002 377.599 54.9669 375.333 57.3002C373.066 59.6336 371.933 62.8336 371.933 66.9002V89.6002C371.933 91.2002 371.499 92.4669 370.633 93.4002C369.833 94.2669 368.566 94.7002 366.833 94.7002ZM414.149 94.9002C410.749 94.9002 407.683 94.2336 404.949 92.9002C402.283 91.5669 400.183 89.7669 398.649 87.5002C397.116 85.2336 396.349 82.6669 396.349 79.8002C396.349 76.2002 397.249 73.3669 399.049 71.3002C400.916 69.1669 403.949 67.6669 408.149 66.8002C412.416 65.8669 418.149 65.4002 425.349 65.4002H430.049V71.6002H425.449C420.649 71.6002 416.849 71.8336 414.049 72.3002C411.249 72.7669 409.249 73.5669 408.049 74.7002C406.916 75.7669 406.349 77.2669 406.349 79.2002C406.349 81.7336 407.216 83.8002 408.949 85.4002C410.683 86.9336 413.083 87.7002 416.149 87.7002C418.616 87.7002 420.783 87.1336 422.649 86.0002C424.516 84.8002 425.983 83.2002 427.049 81.2002C428.183 79.2002 428.749 76.9002 428.749 74.3002V62.8002C428.749 59.0002 427.949 56.2669 426.349 54.6002C424.749 52.9336 422.116 52.1002 418.449 52.1002C416.316 52.1002 414.083 52.3669 411.749 52.9002C409.483 53.4336 407.116 54.3336 404.649 55.6002C403.516 56.1336 402.549 56.3002 401.749 56.1002C400.949 55.9002 400.316 55.4669 399.849 54.8002C399.383 54.0669 399.116 53.3002 399.049 52.5002C399.049 51.6336 399.249 50.8002 399.649 50.0002C400.116 49.2002 400.883 48.6002 401.949 48.2002C404.883 46.8002 407.783 45.8002 410.649 45.2002C413.516 44.6002 416.216 44.3002 418.749 44.3002C423.216 44.3002 426.883 45.0002 429.749 46.4002C432.683 47.8002 434.849 49.9336 436.249 52.8002C437.649 55.6669 438.349 59.3669 438.349 63.9002V89.6002C438.349 91.2002 437.949 92.4669 437.149 93.4002C436.349 94.2669 435.183 94.7002 433.649 94.7002C432.183 94.7002 431.016 94.2669 430.149 93.4002C429.283 92.4669 428.849 91.2002 428.849 89.6002V83.1002H429.749C429.216 85.5669 428.216 87.7002 426.749 89.5002C425.349 91.2336 423.583 92.5669 421.449 93.5002C419.316 94.4336 416.883 94.9002 414.149 94.9002Z" fill="black"/>
</svg>
